PathFileType	4	(X/Y/Z)	RBDS024\RBDS024runT35.trc
DataRate	CameraRate	NumFrames	NumMarkers	Units	OrigDataRate	OrigDataStartFrame	OrigNumFrames
150.000000	150.000000	6	33	mm	150.000000	3375	4500
Frame#	Time	L.ASIS			L.Heel.Bottom			L.Heel.Lateral			L.Heel.Top			L.Iliac.Crest			L.MT1			L.MT5			L.PSIS			L.Shank.Bottom.Lateral			L.Shank.Bottom.Medial			L.Shank.Top.Lateral			L.Shank.Top.Medial			L.Thigh.Bottom.Lateral			L.Thigh.Bottom.Medial			L.Thigh.Top.Lateral			L.Thigh.Top.Medial			R.ASIS			R.ASY			R.Heel.Bottom			R.Heel.Lateral			R.Heel.Top			R.Iliac.Crest			R.MT1			R.MT5			R.PSIS			R.Shank.Bottom.Lateral			R.Shank.Bottom.Medial			R.Shank.Top.Lateral			R.Shank.Top.Medial			R.Thigh.Bottom.Lateral			R.Thigh.Bottom.Medial			R.Thigh.Top.Lateral			R.Thigh.Top.Medial			
		X1	Y1	Z1	X2	Y2	Z2	X3	Y3	Z3	X4	Y4	Z4	X5	Y5	Z5	X6	Y6	Z6	X7	Y7	Z7	X8	Y8	Z8	X9	Y9	Z9	X10	Y10	Z10	X11	Y11	Z11	X12	Y12	Z12	X13	Y13	Z13	X14	Y14	Z14	X15	Y15	Z15	X16	Y16	Z16	X17	Y17	Z17	X18	Y18	Z18	X19	Y19	Z19	X20	Y20	Z20	X21	Y21	Z21	X22	Y22	Z22	X23	Y23	Z23	X24	Y24	Z24	X25	Y25	Z25	X26	Y26	Z26	X27	Y27	Z27	X28	Y28	Z28	X29	Y29	Z29	X30	Y30	Z30	X31	Y31	Z31	X32	Y32	Z32	X33	Y33	Z33	

3376	22.5	2153.220378668452	997.8992345787674	871.5565293823339	2277.570083047003	39.61743032240658	950.9192603078774	2295.558704344432	51.48083285125018	903.1339002793943	2275.445988399874	82.67901484215223	939.7269192352118	2056.886098496024	1070.495916006526	825.3487215428656	2490.956433473334	110.5094494430638	969.1913532788737	2458.018830761574	66.43303882840436	863.8383103625351	1975.16401831712	1033.056999116011	941.1145204279413	2302.752423429846	191.1241777583429	867.9968283458749	2264.051355561005	182.712415726784	900.9602080254689	2273.418882073887	263.775456252295	846.455215406949	2233.182768602985	259.4467862635198	880.9053498084064	2174.981276724488	633.6412425045272	811.4977627679542	2124.692340086862	608.7032485564931	855.2087606272719	2115.202906246714	725.9189399152185	798.9895532404424	2068.288392118948	703.453873677973	842.9154581531978	2158.556149796658	982.5514422512622	1102.597841769587	1531.345262301587	323.1207716643341	1025.244332908403	1490.106516466971	507.7287906773475	990.950185811987	1495.501529244356	478.9307631809528	1040.549874095871	1531.160452622871	498.1360368776204	1001.643908390826	2105.88826625175	1069.13992558215	1148.90749483596	1499.648849506904	289.9304971752171	964.285661655108	1468.523369755853	322.6460092345011	1071.955299039076	1987.748507679928	1033.666815599633	1046.990221510688	1616.201765843237	466.6871432724673	1072.541214857116	1616.412083522943	501.7969822670904	1029.631503526809	1690.747793945812	493.2186123702347	1092.527292515057	1689.603202367768	527.1242130034324	1050.929091057448	1974.574200720757	617.5556973396024	1136.715093773023	1920.920965928176	637.0165536594228	1090.542273225551	1990.648180010047	723.9608954616824	1156.696126312807	1939.377625406968	741.89095999891	1113.477202390084	
3377	22.50666666666667	2152.851105711222	994.3082324092263	871.2344532254222	2261.423383108901	36.30225852594522	951.6736354352953	2279.421499231592	47.57164991968865	903.8154105238392	2260.989853660169	79.35475485171193	940.7205276937738	2054.695131401166	1065.236705863936	825.7245415662148	2477.370313942241	99.01042791443923	968.6308062774607	2442.070555785228	57.88397652694567	862.8413675456603	1974.001492880816	1026.890900572254	942.4138156442583	2292.080918305418	184.7492085979309	868.3709556921181	2253.039591374868	177.7129342079691	901.0415469915407	2265.39265409318	258.127187118016	846.5773616638254	2224.790045059175	255.302140908978	880.6942831232197	2175.023019556837	629.9858620553091	811.8958993151872	2124.242959059495	604.4740296033742	854.6590326366236	2115.019161715156	722.1556409101997	799.3917225952239	2067.71655035005	699.2222032286274	842.5547668110282	2158.205772423246	977.6655492344198	1103.00125494559	1534.894433453854	333.0896866755496	1027.262348378157	1502.194581683141	519.0677582838939	990.5921918469991	1506.30922488981	490.6864742352334	1040.683230356419	1542.792721425213	507.7259018661541	1001.446143571292	2104.9569546358	1062.947548507652	1150.231256416404	1501.406436109265	300.6320899465591	966.7816645782585	1472.295304752093	336.069475825551	1074.084708717305	1986.866858007296	1026.693049142961	1048.172324930757	1626.068456410656	472.7272435367093	1072.833132777647	1627.845490796715	507.6170252733314	1029.831642221122	1701.751219708303	495.9145313268028	1092.653582871252	1702.071849395305	529.6882485430065	1050.970871099041	1981.130964305963	608.6932855085703	1136.220074904873	1927.825520561403	626.7315292929704	1089.304381344864	1994.435650581543	715.4917121664784	1156.018763151692	1943.133313669556	732.119414573777	1112.363444892663	
3378	22.51333333333334	2152.311186958259	990.3017088777653	871.0448201543328	2243.350603595573	33.30591097160602	952.4972012588133	2261.457291415315	44.23036664106525	904.6756014891972	2244.72193893644	76.36440785998512	942.0485427107354	2052.405308107584	1059.552646627056	826.0285152324773	2461.879982835947	87.51311949724744	968.7982022894259	2424.31628700581	50.14951080277445	862.2503869938148	1972.765220512236	1020.52583988787	943.6819571191951	2280.421512040245	178.4318889456446	869.231697336337	2240.82031801029	172.9923037719393	901.2857817840867	2256.858035854819	252.5260272806659	846.9401356506409	2215.699981627539	251.4273389121744	880.3963250148	2175.15432933309	626.0838927761272	812.0921565058819	2123.963058332894	600.0066029141493	854.004300116221	2114.84205737923	718.0764541580985	799.5611666169268	2067.202853357822	694.6835648237176	842.0458459709731	2157.713731300203	972.3113013527581	1103.414690036923	1539.989068790387	342.4586665189017	1029.567496860247	1515.428857919785	529.2795962636408	990.18143537528	1518.413149021603	501.5244515861227	1040.921521269518	1555.535087291812	516.3181651452828	1001.13913329133	2104.148084500877	1056.217423783364	1151.509355052557	1504.703359277324	310.6125145616986	969.729307989249	1477.891224262523	348.8511158512109	1076.618437756283	1985.822804897111	1019.467365626839	1049.263643602654	1637.0336434804	478.0556725073999	1073.10495404007	1640.331733510461	512.6680462647982	1030.017003446077	1713.698760336034	497.9342801716189	1092.775896867899	1715.437549772718	531.5010235869445	1050.997000962489	1987.959095950928	599.6331547658613	1135.938538774565	1934.967959884449	616.1580576946969	1088.320646843422	1998.394937107339	706.7730190518904	1155.524940421343	1947.021893855414	722.0216669209123	1111.474328627633	
3379	22.52	2151.533889794689	985.8760433432366	871.0031871182002	2223.733233239939	30.76425613900644	953.410399760317	2242.042857486661	41.63813925008807	905.7396568420804	2226.93316786786	73.84311965011132	943.730435034688	2050.072628693233	1053.507045822718	826.2349569059172	2444.724635648802	76.62062907173605	969.7144452898984	2405.095530707562	43.64900501976908	862.1345094563871	1971.417322198192	1014.088620580099	944.8882448776263	2267.930933597505	172.4564325704204	870.6191913950146	2227.590914514597	168.8127308366689	901.7575737559964	2247.893081984327	247.1959215880419	847.5912867468463	2206.041520938738	248.0125326664875	880.0885843089824	2175.216714125741	621.9825046302557	812.0611561688353	2123.73134929456	595.3800204797745	853.2875741044068	2114.526378334577	713.7354749084523	799.4946254946485	2066.636407686886	689.9198311965365	841.4441783003098	2157.07259503538	966.514974315738	1103.797917719059	1546.644348539661	351.142720579999	1032.063495771494	1529.595093877897	538.3360824037667	989.840029907586	1531.647605371044	511.347639381605	1041.346901230492	1569.197736399496	523.9067082170567	1000.811821161412	2103.413053347391	1049.022659775094	1152.685252222797	1509.561191883275	319.8095308649942	973.0164229279982	1485.313120038793	360.7890244257065	1079.484537736374	1984.590433850217	1012.099756556095	1050.226182574842	1649.01981634389	482.665533588041	1073.394797651593	1653.753618495501	516.9712600716767	1030.237023449935	1726.522792365717	499.3170237103503	1092.920992817104	1729.593001747583	532.6233509473604	1051.047832510227	1995.107031204888	590.5178199264366	1135.88400057234	1942.346259488564	605.4449891372897	1087.660437568801	2002.590184648156	697.9417812443234	1155.235043002387	1951.0872933501	711.7298351108226	1110.868654453237	
3380	22.52666666666667	2150.458521843158	981.0620034583841	871.1023935339472	2202.933154673133	28.77529599374838	954.4241953245178	2221.524802635862	39.90587739468988	907.0110395121682	2207.898421910909	71.88913799639842	945.7493023043123	2047.735383893623	1047.20246613831	826.331004628037	2426.153303757872	66.84965201923089	971.3058301713676	2384.72091227509	38.64681268422331	862.50319666696	1969.91705834767	1007.714753188658	946.0076938199149	2254.718422979493	167.0820360236314	872.5144281080977	2213.522692978468	165.4086719281274	902.4916480635915	2238.521257759799	242.3459245503637	848.5468814052695	2195.906145440192	245.2324615808735	879.8459149679126	2175.068033076531	617.7579668492527	811.8109871138915	2123.42877486766	590.6927257935679	852.5628512339214	2113.945338689276	709.2198932049242	799.2230126893309	2065.91336236153	685.0363736529121	840.8178614822467	2156.269320530636	960.3254665503906	1104.107028257066	1554.84666333403	359.0482750703833	1034.652180226187	1544.486469362164	546.2369917440367	989.6876485537563	1545.836328443279	520.0751103115178	1042.024801072118	1583.599654385892	530.506184303913	1000.566519868118	2102.684633589546	1041.457678766011	1153.715708215303	1515.985736161029	328.1557285179215	976.5169475091031	1494.504522876066	371.6791685224599	1082.592644670186	1983.145740261963	1004.711600869123	1051.031797673025	1661.940422874634	486.5629159222785	1073.748177361428	1667.990734015133	520.5555545159958	1030.539757688131	1740.148553830972	500.1211622111792	1093.118012669103	1744.429778894814	533.1328898281068	1051.160441316251	2002.626977484138	581.5038671224781	1136.050860698759	1949.975410334325	594.7508718011437	1087.360736485047	2007.078214026047	689.1509788987479	1155.147052227511	1955.375396922622	701.3857919048484	1110.572396823002	
3381	22.53333333333333	2149.03998759046	975.9274501412757	871.3099106688334	2181.275323080776	27.38904345981186	955.5303984133108	2200.204840300823	39.05994982703479	908.4622390298008	2187.867177286591	70.55264688970293	948.0417614365449	2045.409857038699	1040.775062205212	826.3186552099872	2406.413358836734	58.58137135584022	973.4138396512602	2363.468211587542	35.22910057375748	863.3037077620938	1968.228115227271	1001.538381388033	947.0227893020262	2240.845445270685	162.510830256793	874.8304888401531	2198.754106426033	162.9528546976678	903.4775633403544	2228.713582260317	238.1413750805753	849.7793014072646	2185.342972255411	243.216773083893	879.7223111741348	2174.585200214377	613.4993376852683	811.377636737997	2122.939235893977	586.0492087860463	851.8883578468105	2112.996691519062	704.6361470098724	798.8024719108063	2064.941847104667	680.151508047981	840.2394215073545	2155.285885035613	953.8186391314822	1104.300380864513	1564.550988229887	366.0777969615582	1037.239957242197	1559.906483569186	553.0022455831476	989.8319408011129	1560.79717652773	527.6435503078387	1042.998345610422	1598.57037145705	536.1457563700906	1000.50909364886	2101.883368261041	1033.643058876163	1154.573392206225	1523.962875075205	335.578928445422	980.0986722746743	1505.35417743607	381.3266822526248	1085.841322721904	1981.470652020889	997.4336207725929	1051.665333968039	1675.69889558616	489.765723094754	1074.212294838838	1682.919572178319	523.4563642833456	1030.967273003688	1754.492866455465	500.4209226746751	1093.395250954749	1759.838641869873	533.1212972390209	1051.365879858032	2010.571550265803	572.7573028093279	1136.41628812684	1957.888869875086	584.2399326778768	1087.423858897906	2011.903965644849	680.5623398500186	1155.23942417569	1959.930519507328	691.1359795971961	1110.580257521842	
